<svg xmlns="http://www.w3.org/2000/svg" viewBox="0 0 358.023 96.2538">
  <g id="black-rgb">
    <g id="logoMark">
      <path id="logoMark_CompoundPathItem_" data-name="logoMark &lt;CompoundPathItem&gt;" d="M332.1665,1.8867H315.96l-27.2791,77.35q-.47,1.2639-2.41,6.82c-.2746.7643-.5291,1.4894-.7645,2.1949,2.3465-1.91,3.8942-3.0509,3.8942-3.0509,4.9691-4.2631,12.8227-6.6105,23.836-6.6105H318.86a55.7477,55.7477,0,0,0,13.0912-1.3326c1.1167-.2744,2.175-.5684,3.1745-.9211.2942-.098.588-.2155.921-.3527.3139-.1176.6273-.2548.9406-.392.6273-.2939,1.2938-.6075,1.96-.98.3334-.1959.6664-.3723,1-.5879a1.3011,1.3011,0,0,1,.2153-.1371c.2153-.1567.4507-.3135.6665-.47.2741-.1959.5287-.3919.8033-.6075,2.5085-2.0184,8.701-6.565,13.3065-9.9161Zm.7253,72.8426a34.4461,34.4461,0,0,1-7.9369,1.6855c-2.2535.1763-5.2911.2547-9.1517.2547h-1.45q-16.8437,0-23.5754,5.1345L317.0964,6.7077l23.7324,63.867A23.901,23.901,0,0,1,332.8918,74.7293Z" style="fill: #3e5d58"/>
      <path id="logoMark_PathItem_" data-name="logoMark &lt;PathItem&gt;" d="M336.0467,75.9836a25.9268,25.9268,0,0,0,3.9-1.96A21.3353,21.3353,0,0,1,336.0467,75.9836Z" style="fill: #3e5d58"/>
      <path id="logoMark_PathItem_2" data-name="logoMark &lt;PathItem&gt;" d="M285.65,96.1522a22.0536,22.0536,0,0,1,6.9073-7.4725,27.0936,27.0936,0,0,1,9.6086-3.9154,69.9,69.9,0,0,1,10.1091-1.1821l10.0082-.5446a91.9423,91.9423,0,0,0,9.7894-.6458c.8053-.0871,1.544-.2728,2.3105-.417a20.708,20.708,0,0,0,2.1774-.7254,43.8184,43.8184,0,0,0,4.3682-1.9565c2.8061-1.5249,5.5562-3.4946,8.36-5.3,2.8611-1.7456,5.6743-3.5569,8.6211-5.1671l.1124.16q-4.0886,2.8852-8.1259,5.8411c-2.7056,1.95-5.3294,4.019-8.19,5.772a31.821,31.821,0,0,1-4.505,2.2192,18.8113,18.8113,0,0,1-4.8472,1.3336,93.0124,93.0124,0,0,1-9.9894.8417c-6.6634.2891-13.3611.2679-19.946,1.2761a24.6949,24.6949,0,0,0-16.6016,9.9843Z" style="fill: #3e5d58"/>
      <path id="logoMark_PathItem_3" data-name="logoMark &lt;PathItem&gt;" d="M321.8506,91.0647c2.59-.4771,5.1825-.8328,7.7551-1.1447a65.499,65.499,0,0,0,7.5417-1.259,13.1724,13.1724,0,0,0,1.7373-.5507l1.7736-.7346a36.588,36.588,0,0,0,3.4324-1.6392l6.735-3.9325a42.1892,42.1892,0,0,1-5.9289,5.232,25.1787,25.1787,0,0,1-3.4677,2.0277c-.5971.2975-1.2086.5541-1.8143.8169a14.61,14.61,0,0,1-1.9717.6752,35.7934,35.7934,0,0,1-7.9283.8837A61.4339,61.4339,0,0,1,321.8506,91.0647Z" style="fill: #3e5d58"/>
      <path id="logoMark_CompoundPathItem_2" data-name="logoMark &lt;CompoundPathItem&gt;" d="M320.32,39.9731a3.4486,3.4486,0,0,1-.6028,2.02,3.2048,3.2048,0,0,1-2.02,1.44,3.5759,3.5759,0,0,1-2.8707-.5892,3.6085,3.6085,0,0,1,.0048-5.7368,3.5968,3.5968,0,0,1,2.8659-.5863,3.21,3.21,0,0,1,2.0186,1.4337A3.4352,3.4352,0,0,1,320.32,39.9731Zm-.1957,0a2.4144,2.4144,0,0,0-2.4276-2.3785,2.3788,2.3788,0,0,0,0,4.7566A2.4142,2.4142,0,0,0,320.1243,39.9731Z" style="fill: #3e5d58"/>
    </g>
    <g id="type">
      <path id="type_CompoundPathItem_" data-name="type &lt;CompoundPathItem&gt;" d="M101.8428,32.7646a4.1107,4.1107,0,0,0,1.7119-.7871q1.3418-1.11,1.3428-9.4863V9.3018q0-6.8482-1.3428-8.0059a4.1552,4.1552,0,0,0-1.5274-.74h23.3243V5.3682h-.2774A4.8686,4.8686,0,0,0,122.02,2.1289q-2.9149-1.11-12.4482-1.11V17.8633h4.72q2.87,0,3.8877-.7871,1.0165-.7852,1.2959-3.7022h.2315v9.3018h-.2315a6.4139,6.4139,0,0,0-.37-2.1055,4.05,4.05,0,0,0-.7871-1.2959,2.6909,2.6909,0,0,0-1.5039-.6709,15.9492,15.9492,0,0,0-2.0127-.2314q-.9728-.0454-2.8692-.0459h-2.36v8.2373a15.7732,15.7732,0,0,0,.416,3.3779,3.3879,3.3879,0,0,0,.8106,1.4815,2.1835,2.1835,0,0,0,1.5957.833q.8334.0468,2.8232.0459,10.69,0,11.6162-4.5811h.2774v5.0439Z" style="fill: #3e5d58"/>
      <path id="type_CompoundPathItem_2" data-name="type &lt;CompoundPathItem&gt;" d="M131.5527,18.6963a11.5084,11.5084,0,0,0,2.3828,9.834,11.0092,11.0092,0,0,0,8.6309,4.1885,9.3022,9.3022,0,0,0,6.5254-2.2676,7.5828,7.5828,0,0,0,2.36-5.7852,6.92,6.92,0,0,0-2.6386-5.5068,17.3275,17.3275,0,0,0-6.7559-3.3321,39.9369,39.9369,0,0,1-3.8183-1.2959,19.7692,19.7692,0,0,1-3.1934-1.666,7.293,7.293,0,0,1-2.4287-2.43,6.2009,6.2009,0,0,1-.833-3.2158,6.33,6.33,0,0,1,.9941-3.61,6.12,6.12,0,0,1,2.6846-2.2207A15.5466,15.5466,0,0,1,138.9336.3242,21.355,21.355,0,0,1,142.752,0a25.4152,25.4152,0,0,1,10.4121,2.1748,45.64,45.64,0,0,1-.74,7.127h-.417a6.8621,6.8621,0,0,0-2.0361-6.2471Q147.4248.6479,142.752.5088,136.92.648,136.458,6.34a4.376,4.376,0,0,0,1.8047,3.795,17.0947,17.0947,0,0,0,5.23,2.2675q2.1284.6021,3.4941,1.0645a25.8394,25.8394,0,0,1,3.17,1.3652,11.2625,11.2625,0,0,1,2.8458,1.9209,8.68,8.68,0,0,1,1.7812,2.6377A8.59,8.59,0,0,1,155.5244,23a8.9216,8.9216,0,0,1-3.7949,7.3584,14.46,14.46,0,0,1-9.209,2.8691,22.5592,22.5592,0,0,1-4.374-.5556,16.0687,16.0687,0,0,1-4.65-1.8975,8.2128,8.2128,0,0,1-3.332-3.332,17.0286,17.0286,0,0,1-.0235-3.9561q.2081-2.6616.5791-4.7441Z" style="fill: #3e5d58"/>
      <path id="type_CompoundPathItem_3" data-name="type &lt;CompoundPathItem&gt;" d="M157.6992,32.7646a3.4522,3.4522,0,0,0,1.5274-.7871q1.0633-.8773,1.0644-9.4863V9.3018q0-7.08-1.0644-7.96a2.9264,2.9264,0,0,0-1.5274-.7861h10.875a21.5161,21.5161,0,0,1,5.044.6015,20.0388,20.0388,0,0,1,4.7207,1.7813,9.55,9.55,0,0,1,3.5859,3.2861,8.6915,8.6915,0,0,1,1.3652,4.8359,10.5156,10.5156,0,0,1-1.4345,5.53,10.3,10.3,0,0,1-3.8867,3.7481A20.4862,20.4862,0,0,1,172.67,22.375a25.9987,25.9987,0,0,1-5.9931.6709q-.5553,0-1.8506-.0918v1.0176q0,7.0811.9717,8.0058a3.4308,3.4308,0,0,0,1.5732.7871Zm7.127-10.4589a11.07,11.07,0,0,0,2.082.1855,12.53,12.53,0,0,0,8.0986-2.7539,9.5351,9.5351,0,0,0,3.4248-7.89v-.0469a13.0122,13.0122,0,0,0-.9951-5.4141,7.2557,7.2557,0,0,0-2.8926-3.31,13.22,13.22,0,0,0-4.1884-1.5957,28.0844,28.0844,0,0,0-5.4834-.4628Z" style="fill: #3e5d58"/>
      <path id="type_CompoundPathItem_4" data-name="type &lt;CompoundPathItem&gt;" d="M179.959,32.7188a4.124,4.124,0,0,0,1.5967-1.042,7.8732,7.8732,0,0,0,1.4121-2.0586q.6474-1.295,1.041-2.2452.3925-.9477.9482-2.5449t.6944-1.9668L193.5186.5557h4.6738l8.33,22.3056q.2782.6021,1.1572,2.8692t1.7353,3.98a8.0844,8.0844,0,0,0,1.6426,2.4072,3.7905,3.7905,0,0,0,1.5274.6474l-11.1065.0928a3.9863,3.9863,0,0,0,1.6426-.37,1.4527,1.4527,0,0,0,.7871-.9492,4.5264,4.5264,0,0,0,.1387-1.2959,6.4864,6.4864,0,0,0-.3008-1.5967q-.2784-.9243-.5781-1.666-.3018-.74-.6719-1.6885t-.5547-1.458l-.0928-.37-.9257-2.4531q-2.0362,1.667-6.5713,1.666h-1.6192q-4.7681,0-6.8027,1.9443l-1.2959,4.1651a5.0052,5.0052,0,0,0-.1621,2.6836,1.7578,1.7578,0,0,0,1.1338,1.25Zm6.2939-9.1172q1.9438-1.481,6.8028-1.4805h.417q1.6654,0,2.6377-.0693a10.2726,10.2726,0,0,0,2.291-.4864,6.8727,6.8727,0,0,0,2.29-1.2031L193.8428,1.9434Z" style="fill: #3e5d58"/>
      <path id="type_CompoundPathItem_5" data-name="type &lt;CompoundPathItem&gt;" d="M243.6377,12.31l-.74.0468a10.1349,10.1349,0,0,0-1.458-5.16,11.41,11.41,0,0,0-3.54-3.7256,19.0693,19.0693,0,0,0-4.4424-2.1514,14.0268,14.0268,0,0,0-4.3965-.7636,11.0266,11.0266,0,0,0-5.5771,1.3652,9.7062,9.7062,0,0,0-3.7022,3.7021,19.3292,19.3292,0,0,0-1.9667,5.0674,25.4257,25.4257,0,0,0-.6475,5.877,26.5861,26.5861,0,0,0,.625,5.9,19.5368,19.5368,0,0,0,1.92,5.1142,9.7213,9.7213,0,0,0,3.5635,3.7246,10.12,10.12,0,0,0,5.3223,1.3653,15.0488,15.0488,0,0,0,9.5556-3.5635,13.9916,13.9916,0,0,0,5.3916-8.2832l.833.3242a14.0962,14.0962,0,0,1-5.1367,8.3067,14.95,14.95,0,0,1-9.8574,3.7714h-.2774q-7.96,0-12.7031-4.6279A15.9433,15.9433,0,0,1,211.66,16.66a15.7949,15.7949,0,0,1,4.7431-11.8936Q221.1465.186,229.0605.0928h.3233a22.6318,22.6318,0,0,1,6.41.8789A21.6382,21.6382,0,0,1,240.26,2.707a34.16,34.16,0,0,1,3.3779,2.291Z" style="fill: #3e5d58"/>
      <path id="type_CompoundPathItem_6" data-name="type &lt;CompoundPathItem&gt;" d="M257.1025.5557a2.606,2.606,0,0,0-1.0175.4629q-1.2964,1.018-1.2959,9.7646V23.9717q0,7.0356,1.0185,8.0058a2.9175,2.9175,0,0,0,1.5264.7871h-9.44a1.9206,1.9206,0,0,1,.2314-.0927c.0928-.03.1689-.0537.2314-.0694a.2838.2838,0,0,0,.1387-.0693,2.1166,2.1166,0,0,0,.9258-1.0644,13.5881,13.5881,0,0,0,.74-4.628q.0454-1.7109.0469-4.35V9.3018q0-7.2187-.9258-8.0059a4.1916,4.1916,0,0,0-1.4345-.74Z" style="fill: #3e5d58"/>
      <path id="type_CompoundPathItem_7" data-name="type &lt;CompoundPathItem&gt;" d="M295.5137,16.3828a16.4566,16.4566,0,0,1-4.6973,12.124q-4.6977,4.7212-12.61,4.7207-7.8678,0-12.75-4.7666a16.2206,16.2206,0,0,1-4.8819-12.125q0-7.3578,4.6973-11.8007T277.9277.0928q7.9146,0,12.75,4.4658A15.3292,15.3292,0,0,1,295.5137,16.3828Zm-5.7852,5.044a28.6885,28.6885,0,0,0,.3711-4.7207,26.7486,26.7486,0,0,0-.417-4.7891,19.2,19.2,0,0,0-1.3418-4.374A13.8383,13.8383,0,0,0,286.0264,3.91a9.8185,9.8185,0,0,0-3.4707-2.4522,11.5178,11.5178,0,0,0-4.628-.9023,11.2472,11.2472,0,0,0-5.6455,1.3652,9.6611,9.6611,0,0,0-3.7256,3.7021,18.7443,18.7443,0,0,0-1.9433,5.0909,26.6573,26.6573,0,0,0-.625,5.9,25.3747,25.3747,0,0,0,.6709,5.97,18.4054,18.4054,0,0,0,2.06,5.1133,10.1063,10.1063,0,0,0,3.8183,3.7021,11.3761,11.3761,0,0,0,5.669,1.3652,11.2082,11.2082,0,0,0,4.65-.9257,9.786,9.786,0,0,0,3.4014-2.4522,13.1107,13.1107,0,0,0,2.2217-3.6328A19.5713,19.5713,0,0,0,289.7285,21.4268Z" style="fill: #3e5d58"/>
      <path id="type_CompoundPathItem_8" data-name="type &lt;CompoundPathItem&gt;" d="M6.4785,54.4189,20.5938,78.3447,34.6152,54.4189h8.0059a3.3849,3.3849,0,0,0-1.5273.74q-1.2949,1.0649-1.295,9.4873V78.2979q0,6.3413,1.295,7.5429a4.2173,4.2173,0,0,0,1.7128.7871h-10.69a3.786,3.786,0,0,0,1.666-.74q1.2495-.9726,1.25-8.0059V55.252L18.7881,82.9258,4.4424,60.0186v17.4q0,5.045.81,6.9649a3.3835,3.3835,0,0,0,2.4765,2.2441H.5547a1.3833,1.3833,0,0,0,.3242-.0459.1351.1351,0,0,0,.0928-.0468q2.6835-.74,2.6836-8.19V62.61a15.7718,15.7718,0,0,0-.9483-5.045Q1.7578,54.79,0,54.28Z" style="fill: #3e5d58"/>
      <path id="type_CompoundPathItem_9" data-name="type &lt;CompoundPathItem&gt;" d="M43.5459,86.582a4.121,4.121,0,0,0,1.5967-1.042,7.8715,7.8715,0,0,0,1.4121-2.0586q.6474-1.2948,1.041-2.2451.3925-.9477.9482-2.5449t.6944-1.9668l7.8672-22.3057h4.6738l8.33,22.3057q.2783.6021,1.1572,2.8692t1.7354,3.9794a8.082,8.082,0,0,0,1.6425,2.4073,3.7926,3.7926,0,0,0,1.5274.6474l-11.1065.0928a3.9859,3.9859,0,0,0,1.6426-.37,1.4527,1.4527,0,0,0,.7871-.9492,4.5264,4.5264,0,0,0,.1387-1.2959,6.477,6.477,0,0,0-.3008-1.5967q-.2783-.9243-.5781-1.666-.3018-.74-.6719-1.6885t-.5547-1.458l-.0928-.37L64.51,74.873q-2.0363,1.6671-6.5713,1.6661H56.3193q-4.7681,0-6.8027,1.9443l-1.2959,4.165a5.0053,5.0053,0,0,0-.1621,2.6836,1.7574,1.7574,0,0,0,1.1338,1.25ZM49.84,77.4648q1.9439-1.4809,6.8028-1.48h.417q1.6654,0,2.6377-.0694a10.2661,10.2661,0,0,0,2.291-.4863,6.8717,6.8717,0,0,0,2.29-1.2031L57.43,55.8066Z" style="fill: #3e5d58"/>
      <path id="type_CompoundPathItem_10" data-name="type &lt;CompoundPathItem&gt;" d="M70.8047,54.4189H97.877V59.417h-.3243a3.8646,3.8646,0,0,0-1.3418-2.5684A6.6993,6.6993,0,0,0,93.1338,55.46a25.8056,25.8056,0,0,0-3.24-.4864q-1.3185-.0907-3.17-.0918V76.3545q0,2.5912.0928,4.35a12.0308,12.0308,0,0,0,.74,4.3037,3.3355,3.3355,0,0,0,2.2217,1.62H79.042a3.5245,3.5245,0,0,0,1.11-.4629,3.41,3.41,0,0,0,1.0186-1.1572q.832-1.2495.833-8.0058v-22.12q-1.5747,0-2.5225.0225a23.4837,23.4837,0,0,0-2.5683.2549,10.13,10.13,0,0,0-2.6143.6709,7.1213,7.1213,0,0,0-1.9443,1.3193,4.3224,4.3224,0,0,0-1.2725,2.1289h-.2773Z" style="fill: #3e5d58"/>
      <path id="type_CompoundPathItem_11" data-name="type &lt;CompoundPathItem&gt;" d="M100.0977,86.6279a4.1113,4.1113,0,0,0,1.7119-.7871q1.3417-1.11,1.3427-9.4863V63.165q0-6.8481-1.3427-8.0058a4.1554,4.1554,0,0,0-1.5274-.74h23.3242v4.8125h-.2773a4.8687,4.8687,0,0,0-3.0547-3.2392q-2.9149-1.11-12.4482-1.11V71.7266h4.72q2.87,0,3.8877-.7871,1.0166-.7853,1.2959-3.7022h.2314v9.3018H117.73a6.4161,6.4161,0,0,0-.37-2.1055,4.05,4.05,0,0,0-.7871-1.2959,2.6909,2.6909,0,0,0-1.5039-.6709,15.9492,15.9492,0,0,0-2.0127-.2314q-.9727-.0454-2.8692-.0459h-2.36v8.2373a15.7732,15.7732,0,0,0,.416,3.3779,3.3878,3.3878,0,0,0,.8105,1.4814,2.1833,2.1833,0,0,0,1.5957.833q.8336.047,2.8233.0459,10.69,0,11.6162-4.581h.2773v5.0439Z" style="fill: #3e5d58"/>
      <path id="type_CompoundPathItem_12" data-name="type &lt;CompoundPathItem&gt;" d="M127.6787,86.6279a3.4522,3.4522,0,0,0,1.5274-.7871q1.0634-.8774,1.0644-9.4863V63.165q0-7.08-1.0644-7.96a2.9266,2.9266,0,0,0-1.5274-.7862H138.6a19.83,19.83,0,0,1,4.9063.6016,16.847,16.847,0,0,1,4.373,1.7813,8.9626,8.9626,0,0,1,3.2393,3.2861,9.4349,9.4349,0,0,1,1.2265,4.8359,11.4777,11.4777,0,0,1-1.042,4.9746,9.458,9.458,0,0,1-2.8916,3.587,15.5181,15.5181,0,0,1-4.1191,2.1982,21.1349,21.1349,0,0,1-4.9512,1.0869,9.5857,9.5857,0,0,1,4.211,1.3887,11.9749,11.9749,0,0,1,3.332,3.6094q2.1283,3.4261,3.8867,3.4248a3.947,3.947,0,0,0,1.8281-.4395,3.5828,3.5828,0,0,0,1.1807-.8564l.37-.4161h.416a4.3793,4.3793,0,0,1-2.1054,2.29,7.6882,7.6882,0,0,1-3.91.9492h-.1855a6.1036,6.1036,0,0,1-2.9151-.7637,6.0216,6.0216,0,0,1-1.7822-1.4111q-.5318-.6943-1.457-2.2217-.9728-1.5278-1.458-2.2441a10.4975,10.4975,0,0,0-1.5733-1.7129,7.3032,7.3032,0,0,0-2.291-1.458q-.6943,0-2.082-.0918V77.835q0,7.0811.9716,8.0058a3.4326,3.4326,0,0,0,1.5733.7871Zm7.127-10.459a11.3218,11.3218,0,0,0,2.1279.1856,10.836,10.836,0,0,0,7.4512-2.7539q3.1-2.7525,3.1006-7.8438v-.0927q-.0469-6.2477-3.0772-8.5147-3.0323-2.2675-9.5566-2.2676Z" style="fill: #3e5d58"/>
      <path id="type_CompoundPathItem_13" data-name="type &lt;CompoundPathItem&gt;" d="M186.1729,54.4189a3.2544,3.2544,0,0,0-1.0176.4161q-2.0831,1.2963-2.083,8.6543v23.37H181.916L160.4434,58.4453V77.4189q0,7.3125,1.9892,8.7a4.9176,4.9176,0,0,0,1.2959.5088H156.417a4.6473,4.6473,0,0,0,1.249-.5088q2.0361-1.3886,2.0361-8.7v-13.93q0-.3707.0235-1.6661t0-1.6425q-.0234-.3473-.0928-1.3428a4.0807,4.0807,0,0,0-.2314-1.3184c-.1084-.2158-.2618-.5478-.4629-.9951a2.0806,2.0806,0,0,0-.74-.9482q-.4394-.2784-1.0869-.625a5.72,5.72,0,0,0-1.5273-.5323h7.7285l18.9268,25.4063.14-15.6885v-.6474q0-7.3111-2.083-8.6543a4.0349,4.0349,0,0,0-1.0645-.4161Z" style="fill: #3e5d58"/>
      <path id="type_CompoundPathItem_14" data-name="type &lt;CompoundPathItem&gt;" d="M198.4824,54.4189a2.61,2.61,0,0,0-1.0176.4629q-1.2963,1.0181-1.2959,9.7647V77.835q0,7.0356,1.0186,8.0058a2.9182,2.9182,0,0,0,1.5264.7871h-9.44a1.93,1.93,0,0,1,.2315-.0927c.0928-.03.1689-.0538.2314-.0694a.2846.2846,0,0,0,.1387-.0693,2.1164,2.1164,0,0,0,.9258-1.0645,13.5874,13.5874,0,0,0,.74-4.6279q.0455-1.7109.0469-4.35V63.165q0-7.2187-.9258-8.0058a4.1931,4.1931,0,0,0-1.4346-.74Z" style="fill: #3e5d58"/>
      <path id="type_CompoundPathItem_15" data-name="type &lt;CompoundPathItem&gt;" d="M201.8154,54.4189h27.0723V59.417h-.3242a3.8646,3.8646,0,0,0-1.3418-2.5684,6.7,6.7,0,0,0-3.0772-1.3886,25.8,25.8,0,0,0-3.24-.4864q-1.3184-.0907-3.17-.0918V76.3545q0,2.5912.0927,4.35a12.03,12.03,0,0,0,.74,4.3037,3.3353,3.3353,0,0,0,2.2217,1.62H210.0527a3.526,3.526,0,0,0,1.11-.4629,3.41,3.41,0,0,0,1.0185-1.1572q.832-1.2495.833-8.0058v-22.12q-1.5747,0-2.5224.0225a23.4851,23.4851,0,0,0-2.5684.2549,10.13,10.13,0,0,0-2.6142.6709,7.1217,7.1217,0,0,0-1.9444,1.3193,4.3215,4.3215,0,0,0-1.2724,2.1289h-.2774Z" style="fill: #3e5d58"/>
      <path id="type_CompoundPathItem_16" data-name="type &lt;CompoundPathItem&gt;" d="M241.4277,54.4189a2.6089,2.6089,0,0,0-1.0175.4629q-1.2965,1.0181-1.2959,9.7647V77.835q0,7.0356,1.0185,8.0058a2.9182,2.9182,0,0,0,1.5264.7871h-9.44a1.9206,1.9206,0,0,1,.2314-.0927c.0928-.03.1689-.0538.2314-.0694a.2846.2846,0,0,0,.1387-.0693,2.1164,2.1164,0,0,0,.9258-1.0645,13.5874,13.5874,0,0,0,.74-4.6279q.0455-1.7109.0469-4.35V63.165q0-7.2187-.9258-8.0058a4.1935,4.1935,0,0,0-1.4345-.74Z" style="fill: #3e5d58"/>
      <path id="type_CompoundPathItem_17" data-name="type &lt;CompoundPathItem&gt;" d="M246.6572,72.56a11.5085,11.5085,0,0,0,2.3828,9.834,11.0088,11.0088,0,0,0,8.6309,4.1884,9.3018,9.3018,0,0,0,6.5254-2.2675,7.5828,7.5828,0,0,0,2.36-5.7852,6.92,6.92,0,0,0-2.6386-5.5068,17.3275,17.3275,0,0,0-6.7559-3.3321,39.9648,39.9648,0,0,1-3.8183-1.2959,19.7651,19.7651,0,0,1-3.1934-1.666,7.2939,7.2939,0,0,1-2.4287-2.43,6.2012,6.2012,0,0,1-.833-3.2158,6.33,6.33,0,0,1,.9941-3.61,6.12,6.12,0,0,1,2.6846-2.2207,15.5466,15.5466,0,0,1,3.4707-1.0645,21.3539,21.3539,0,0,1,3.8183-.3242,25.416,25.416,0,0,1,10.4122,2.1748,45.6382,45.6382,0,0,1-.74,7.1269h-.417a6.862,6.862,0,0,0-2.0361-6.247q-2.5459-2.4068-7.2188-2.5459-5.8314.139-6.2939,5.831a4.3758,4.3758,0,0,0,1.8047,3.7949,17.0921,17.0921,0,0,0,5.23,2.2676q2.1284.6021,3.4941,1.0645a25.8394,25.8394,0,0,1,3.17,1.3652,11.26,11.26,0,0,1,2.8457,1.9209,8.6785,8.6785,0,0,1,1.7813,2.6377,8.59,8.59,0,0,1,.7412,3.6094,8.9216,8.9216,0,0,1-3.7949,7.3584,14.4608,14.4608,0,0,1-9.209,2.8691,22.5592,22.5592,0,0,1-4.374-.5556,16.0687,16.0687,0,0,1-4.65-1.8975,8.2122,8.2122,0,0,1-3.332-3.332,17.0229,17.0229,0,0,1-.0235-3.9561q.208-2.6616.5791-4.7441Z" style="fill: #3e5d58"/>
    </g>
  </g>
</svg>
